<?xml version="1.0" encoding="utf-8"?>
<svg id="svg2" viewBox="0 0 500 670" xmlns="http://www.w3.org/2000/svg">
  <desc>Big "O-Snake" apple</desc>
  <defs>
    <radialGradient id="radialGradient50" gradientUnits="userSpaceOnUse" cy="13.127" cx="23.404" gradientTransform="matrix(10.196181, 10.273411, 8.638864, -10.407683, -160.550045, 198.53795)" r="14.286">
      <stop id="stop52" style="stop-color: #ff0008" offset="0"/>
      <stop id="stop54" style="stop-color: #800005" offset="1"/>
    </radialGradient>
  </defs>
  <path id="path56" style="fill: url(&quot;#radialGradient50&quot;); transform-box: fill-box; transform-origin: 50% 50%;" d="M 244.115 245.031 C 254.745 244.108 269.493 241.994 288.394 238.79 C 303.663 237.399 317.097 239.499 328.633 245.031 C 347.407 253.461 361.799 269.546 371.81 293.264 C 385.138 324.033 385.556 359.22 372.965 398.801 C 361.391 434.222 347.294 457.969 330.416 470.055 C 321.944 476.148 305.97 481.069 282.51 484.741 C 253.036 489.874 228.908 490.598 209.99 486.835 C 175.059 480.828 148.151 462.18 129.187 430.949 C 103.375 387.631 92.237 349.008 95.931 314.964 C 100.207 283.272 116.793 260.413 145.628 246.453 C 165.499 237.156 183.424 234.338 199.596 238.094 C 222.288 243.165 237.118 245.508 244.115 245.031 Z" transform="matrix(0.999977, -0.006767, 0.006767, 0.999977, 0, 0)"/>
  <path id="path222" style="fill: rgb(255, 255, 255);" d="M 163.6 298.902 C 173.833 299.286 181.245 302.34 185.925 307.942 C 190.612 312.628 191.558 317.457 188.745 322.613 C 185.925 326.83 180.387 328.946 171.957 328.946 C 164.005 328.47 157.051 326.37 150.958 322.613 C 145.428 318.885 144.241 313.963 147.536 307.942 C 151.194 301.85 156.591 298.902 163.6 298.902 Z"/>
  <path id="path224" style="fill: rgb(255, 145, 145);" d="M 225.662 266.03 L 234.085 264.633 C 240.085 264.148 245.241 264.148 249.458 264.633 C 255.936 265.086 269.436 261.813 289.958 254.875 C 281.549 262.756 271.558 268.601 259.926 272.279 C 249.694 276.022 241.725 277.896 236.117 277.896 C 228.702 278.35 220.962 276.504 213.094 272.279 C 207.939 269.546 202.406 264.866 196.314 258.297 L 188.652 248.548 L 199.126 254.875 C 207.939 259.468 216.829 263.233 225.662 266.03 Z"/>
  <path id="path226" style="fill: rgb(128, 0, 5);" d="M 195.915 256.905 C 203.82 258.297 212.469 256.905 221.758 252.764 C 228.306 252.297 230.811 251.125 229.414 249.242 C 229.874 248.305 230.428 247.39 230.811 246.453 C 232.225 244.571 233.391 244.108 234.328 245.031 C 236.208 245.962 241.827 245.742 251.107 244.407 L 247.591 249.242 C 245.717 252.517 246.436 255.094 249.716 256.975 C 255.787 259.718 263.918 259.959 274.129 257.601 L 262.262 262.508 C 249.716 267.664 239.241 270.483 230.811 270.944 C 224.336 271.42 216.609 269.311 207.789 264.633 L 195.915 256.905 Z"/>
  <path id="path14" style="fill: rgb(140, 161, 1);" d="M 319.893 227.395 L 322.158 235.049 L 322.988 238.992 L 323.615 246.891 L 323.615 250.327 L 322.988 256.995 L 321.531 263.163 L 318.435 270.288 L 315.547 274.749 L 315.129 274.967 L 314.923 275.465 L 313.259 277.201 L 313.672 275.465 L 314.088 272.275 L 313.878 270.534 L 313.672 266.356 L 312.843 262.169 L 309.949 253.03 L 308.908 250.83 L 303.945 242.428 L 297.329 234.313 L 288.223 225.692 L 280.57 215.842 L 276.435 208.188 L 273.314 200.043 L 270.637 188.723 L 269.803 177.63 L 270.008 171.957 L 271.256 163.564 L 273.525 155.195 L 275.184 167.749 L 277.037 174.409 L 280.364 180.578 L 284.294 185.995 L 311.827 213.112 L 316.376 220.027 L 319.893 227.395 Z"/>
  <path id="path16" style="fill: rgb(97, 110, 1);" d="M 316.376 220.027 L 319.893 227.395 L 322.158 235.049 L 322.988 238.992 L 323.615 246.398 L 323.198 256 L 321.951 261.923 L 319.893 267.842 L 316.17 274.007 L 315.757 274.007 L 315.757 274.501 L 313.672 277.201 L 318.229 268.334 L 320.304 262.414 L 321.324 256.251 L 321.531 253.275 L 320.727 244.91 L 319.264 240.231 L 319.057 239.731 L 318.643 238.992 L 315.757 231.611 L 312.033 225.692 L 306.647 219.278 L 289.058 202.27 L 281.173 192.662 L 276.229 182.805 L 273.525 172.924 L 272.482 166.039 L 272.902 159.873 L 273.731 157.399 L 274.143 162.573 L 276.019 171.957 L 279.949 180.328 L 282.423 184.017 L 285.541 187.483 L 311.827 213.112 L 316.376 220.027 Z"/>
  <path id="path18" style="fill: rgb(108, 125, 2);" d="M 290.694 203.264 L 309.331 221.73 L 314.088 228.39 L 317.187 234.313 L 319.476 240.477 L 320.933 247.136 L 321.531 252.811 L 319.476 242.212 L 314.088 229.634 L 308.702 222.226 L 305.815 219.033 L 288.435 202.515 L 282.631 195.61 L 276.618 185.257 L 272.902 173.663 L 271.678 166.786 L 273.108 165.298 L 276.019 180.082 L 277.659 185.009 L 282.008 192.91 L 290.076 203.006 L 290.694 203.264 Z"/>
  <path id="path20" style="fill: rgb(104, 120, 2);" d="M 276.229 171.712 L 277.453 174.905 L 276.229 175.649 L 274.359 178.344 L 272.69 181.818 L 272.09 185.75 L 272.482 188.969 L 272.482 190.429 L 273.108 195.61 L 275.184 204.995 L 271.466 192.662 L 270.008 183.303 L 269.803 177.14 L 270.637 167.749 L 273.525 155.195 L 274.359 164.805 L 276.229 171.712 Z"/>
  <path id="path22" style="fill: rgb(108, 125, 2);" d="M 282.631 194.396 L 283.464 194.861 L 283.672 195.107 L 283.672 196.101 L 283.464 196.598 L 283.464 197.341 L 283.258 198.583 L 283.464 205.954 L 283.672 206.453 L 284.294 209.428 L 282.837 205.458 L 282.423 204.749 L 282.008 202.761 L 281.59 199.322 L 281.59 197.837 L 281.796 196.598 L 282.216 195.107 L 282.423 194.643 L 282.631 194.396 Z"/>
  <path id="path24" style="fill: rgb(108, 125, 2);" d="M 292.399 206.698 L 292.613 207.692 L 292.399 212.866 L 292.821 215.341 L 293.624 217.793 L 294.045 218.539 L 294.251 219.526 L 294.457 219.774 L 294.668 220.272 L 294.874 221.014 L 295.08 221.484 L 295.292 222.226 L 295.292 222.717 L 295.498 222.717 L 295.498 223.221 L 295.292 222.717 L 291.78 215.093 L 290.945 210.17 L 290.945 208.433 L 290.735 207.439 L 290.735 206.453 L 290.945 206.453 L 290.945 205.706 L 291.151 205.458 L 291.363 205.458 L 292.399 206.698 Z"/>
  <path id="path26" style="fill: rgb(108, 125, 2);" d="M 307.667 232.577 L 305.815 228.886 L 303.317 221.73 L 302.3 216.806 L 302.3 214.848 L 302.507 215.093 L 303.135 215.592 L 303.526 216.308 L 303.945 217.3 L 304.151 221.014 L 305.4 226.414 L 307.667 232.577 Z"/>
  <path id="path28" style="fill: rgb(108, 125, 2);" d="M 313.259 231.831 L 313.259 231.611 L 313.465 230.125 L 313.672 229.384 L 313.878 229.138 L 314.088 229.634 L 315.129 238.245 L 314.713 245.158 L 314.713 241.962 L 313.465 233.564 L 313.465 232.823 L 313.259 231.831 Z"/>
  <path id="path30" style="fill: rgb(108, 125, 2);" d="M 319.476 248.597 L 319.893 246.15 L 320.304 245.648 L 320.933 246.15 L 320.098 249.095 L 319.893 250.327 L 319.057 253.548 L 317.602 257.245 L 319.476 250.082 L 319.476 248.597 Z"/>
  <path id="path32" style="fill: rgb(108, 125, 2);" d="M 286.559 195.856 L 283.672 196.598 L 283.043 194.643 L 283.672 193.902 L 284.294 193.404 L 285.335 193.404 L 287.394 194.396 L 289.058 194.861 L 292.78 196.598 L 289.264 195.856 L 286.559 195.856 Z"/>
  <path id="path34" style="fill: rgb(108, 125, 2);" d="M 298.767 205.706 L 297.543 205.24 L 296.498 205.458 L 295.874 205.458 L 295.251 205.706 L 293.613 207.692 L 291.945 205.24 L 293.192 204.497 L 296.08 204.497 L 301.051 206.207 L 298.767 205.706 Z"/>
  <path id="path36" style="fill: rgb(108, 125, 2);" d="M 309.949 215.093 L 308.908 214.848 L 307.874 214.848 L 306.647 214.6 L 305.815 214.6 L 303.733 215.341 L 303.317 215.341 L 303.135 215.592 L 302.3 215.093 L 303.135 214.106 L 306.229 213.606 L 306.856 213.861 L 307.478 214.351 L 309.949 215.093 Z"/>
  <path id="path38" style="fill: rgb(108, 125, 2);" d="M 317.187 229.384 L 319.264 230.875 L 316.771 229.634 L 315.757 229.384 L 315.129 229.634 L 314.088 229.634 L 313.672 229.138 L 313.878 228.39 L 315.964 228.39 L 316.582 228.64 L 317.187 229.384 Z"/>
  <path id="path228" style="fill: rgb(162, 176, 2);" d="M 248.907 207.692 C 242.133 224.62 238.48 240.231 237.924 254.514 C 237.651 263.241 238.343 269.629 240.006 273.759 C 237.788 275.22 236.149 275.298 235.037 274.007 C 234.48 273.346 234.137 272.192 233.996 270.534 L 233.788 268.582 C 233.233 266.765 232.959 263.739 232.959 259.441 C 233.096 250.908 234.48 240.231 237.119 227.395 C 240.284 212.448 245.67 198.413 253.251 185.257 C 260.162 173.285 263.813 165.13 264.231 160.867 L 264.623 154.208 L 266.286 153.213 C 267.813 152.717 269.548 153.05 271.466 154.208 C 274.214 155.856 275.329 157.258 274.772 158.385 C 272.162 162.192 270.149 166.54 268.784 171.466 C 268.091 173.586 265.386 178.457 260.694 185.995 C 255.31 194.396 251.382 201.607 248.907 207.692 Z"/>
  <path id="path230" style="fill: rgb(131, 150, 2);" d="M 246.618 208.188 C 250.475 199.818 254.753 192.001 259.447 184.793 C 263.722 178.048 267.239 170.31 270.008 161.606 C 270.702 159.462 271.049 156.925 271.049 153.957 L 271.466 154.208 C 274.214 155.856 275.329 157.258 274.772 158.385 C 272.139 162.192 270.149 166.54 268.761 171.466 C 268.067 173.586 265.386 178.457 260.694 185.995 C 255.31 194.396 251.382 201.607 248.907 207.692 C 242.133 224.62 238.48 240.231 237.924 254.514 C 237.651 263.241 238.343 269.629 240.006 273.759 C 237.788 275.22 236.149 275.298 235.037 274.007 L 234.202 271.774 C 235.451 272.275 236.215 272.52 236.49 272.52 C 237.58 272.683 237.924 270.534 237.511 266.106 C 236.842 257.708 236.635 249.921 236.906 242.678 C 237.304 232.985 240.564 221.484 246.618 208.188 Z"/>
  <path id="path232" style="fill: rgb(200, 219, 70);" d="M 265.664 158.641 C 265.802 156.847 266.009 155.771 266.286 155.44 C 266.563 155.279 266.843 155.608 267.098 156.434 C 267.51 157.399 267.098 160.204 265.874 164.805 C 264.486 170.227 261.529 176.475 256.972 183.548 C 254.061 188.144 252.351 190.674 251.794 191.175 C 251.102 191.838 251.451 191.007 252.835 188.723 C 256.137 182.642 258.612 178.429 260.28 176.145 C 261.529 174.326 262.753 171.466 264.002 167.524 C 264.974 163.895 265.523 160.952 265.664 158.641 Z"/>
</svg>